<svg xmlns="http://www.w3.org/2000/svg" width="50" height="50" viewBox="0 0 50 50">
  <g id="Group_41311" data-name="Group 41311" transform="translate(-1129 -440)">
    <circle id="Ellipse_575" data-name="Ellipse 575" cx="2.206" cy="2.206" r="2.206" transform="translate(1170.019 455.426) rotate(-104.616)"/>
    <circle id="Ellipse_576" data-name="Ellipse 576" cx="2.206" cy="2.206" r="2.206" transform="translate(1166.218 467.629) rotate(-104.616)"/>
    <circle id="Ellipse_577" data-name="Ellipse 577" cx="2.206" cy="2.206" r="2.206" transform="translate(1158.554 481.396) rotate(-104.616)"/>
    <circle id="Ellipse_578" data-name="Ellipse 578" cx="2.206" cy="2.206" r="2.206" transform="translate(1146.54 481.396) rotate(-104.616)"/>
    <circle id="Ellipse_580" data-name="Ellipse 580" cx="3.309" cy="3.309" r="3.309" transform="translate(1144.405 469.099) rotate(-104.616)"/>
    <circle id="Ellipse_581" data-name="Ellipse 581" cx="2.206" cy="2.206" r="2.206" transform="translate(1138.626 467.628) rotate(-104.616)"/>
    <circle id="Ellipse_582" data-name="Ellipse 582" cx="3.309" cy="3.309" r="3.309" transform="translate(1159.111 468.974) rotate(-104.616)"/>
    <circle id="Ellipse_583" data-name="Ellipse 583" cx="3.309" cy="3.309" r="3.309" transform="translate(1151.758 469.099) rotate(-104.616)"/>
    <circle id="Ellipse_584" data-name="Ellipse 584" cx="3.309" cy="3.309" r="3.309" transform="translate(1163.223 456.897) rotate(-104.616)"/>
    <circle id="Ellipse_585" data-name="Ellipse 585" cx="3.309" cy="3.309" r="3.309" transform="translate(1155.87 456.897) rotate(-104.616)"/>
    <circle id="Ellipse_586" data-name="Ellipse 586" cx="3.309" cy="3.309" r="3.309" transform="translate(1148.061 456.897) rotate(-104.616)"/>
    <circle id="Ellipse_587" data-name="Ellipse 587" cx="3.309" cy="3.309" r="3.309" transform="translate(1140.708 456.897) rotate(-104.616)"/>
    <circle id="Ellipse_588" data-name="Ellipse 588" cx="2.206" cy="2.206" r="2.206" transform="translate(1134.825 455.426) rotate(-104.616)"/>
    <circle id="Ellipse_589" data-name="Ellipse 589" cx="3.309" cy="3.309" r="3.309" transform="translate(1151.758 482.867) rotate(-104.616)"/>
    <g id="Rectangle_29" data-name="Rectangle 29" transform="translate(1129 440)" fill="none" stroke="#04f" stroke-width="0.4">
      <rect width="50" height="50" stroke="none"/>
      <rect x="0.2" y="0.2" width="49.6" height="49.6" fill="none"/>
    </g>
    <g id="Ellipse_590" data-name="Ellipse 590" transform="translate(1129 440)" fill="none" stroke="#2680eb" stroke-width="0.4">
      <circle cx="25" cy="25" r="25" stroke="none"/>
      <circle cx="25" cy="25" r="24.8" fill="none"/>
    </g>
  </g>
</svg>
