<svg xmlns="http://www.w3.org/2000/svg" width="150" height="60" viewBox="0 0 150 60">
  <g id="Group_7" data-name="Group 7" transform="translate(-235 -169)">
    <g id="Rectangle_10" data-name="Rectangle 10" transform="translate(235 169)" fill="none" stroke="#000" stroke-width="2">
      <rect width="150" height="60" rx="10" stroke="none"/>
      <rect x="1" y="1" width="148" height="58" rx="9" fill="none"/>
    </g>
    <path id="Path_2" data-name="Path 2" d="M10.274-3.639A3.183,3.183,0,0,1,8.657-.633,5.623,5.623,0,0,1,5.854,0H1.459V-12.568H5.854a5.244,5.244,0,0,1,2.628.58A2.81,2.81,0,0,1,9.9-9.343a2.665,2.665,0,0,1-.681,1.859A3.1,3.1,0,0,1,7.4-6.53V-6.5a3.3,3.3,0,0,1,2.079.91A2.629,2.629,0,0,1,10.274-3.639ZM7.383-9.018A1.32,1.32,0,0,0,6.6-10.345a4.277,4.277,0,0,0-1.652-.237H3.981v3.094H5Q7.383-7.488,7.383-9.018Zm.378,5.286q0-1.885-2.593-1.885H3.981v3.63H5.168Q7.761-1.986,7.761-3.731ZM20.751,0H18.466V-1.257h-.035A3.777,3.777,0,0,1,15.39.22a2.871,2.871,0,0,1-2.4-1.037,4.068,4.068,0,0,1-.756-2.6V-9.272h2.417v4.948a5.451,5.451,0,0,0,.2,1.758,1.326,1.326,0,0,0,1.362.914,1.8,1.8,0,0,0,1.714-1.1,4.332,4.332,0,0,0,.413-1.986V-9.272h2.408ZM28.74,0a6.489,6.489,0,0,1-1.784.22A2.874,2.874,0,0,1,24.776-.6a3.038,3.038,0,0,1-.756-2.188v-4.72H22.245V-9.272h1.775v-1.854l2.417-.773v2.628h2.145v1.767H26.438v4.324q0,1.529,1.134,1.529a2.019,2.019,0,0,0,1.1-.255Zm7,0a6.489,6.489,0,0,1-1.784.22A2.874,2.874,0,0,1,31.781-.6a3.038,3.038,0,0,1-.756-2.188v-4.72H29.25V-9.272h1.775v-1.854l2.417-.773v2.628h2.145v1.767H33.442v4.324q0,1.529,1.134,1.529a2.019,2.019,0,0,0,1.1-.255ZM46.354-4.57a4.7,4.7,0,0,1-1.274,3.393A4.746,4.746,0,0,1,41.493.22a4.706,4.706,0,0,1-3.568-1.4A4.7,4.7,0,0,1,36.65-4.57a4.8,4.8,0,0,1,1.4-3.6,4.733,4.733,0,0,1,3.445-1.31,4.756,4.756,0,0,1,3.463,1.31A4.786,4.786,0,0,1,46.354-4.57Zm-2.522-.29a3.074,3.074,0,0,0-.571-1.907,2.1,2.1,0,0,0-1.767-.844,2.072,2.072,0,0,0-1.749.853,3.074,3.074,0,0,0-.58,1.9q0,3.208,2.329,3.208T43.831-4.86ZM56.751,0H54.343V-4.948a5.5,5.5,0,0,0-.2-1.758,1.341,1.341,0,0,0-1.371-.905,1.8,1.8,0,0,0-1.714,1.09,4.411,4.411,0,0,0-.4,1.986V0H48.234V-9.272H50.52v1.266h.044A3.508,3.508,0,0,1,53.6-9.483,2.882,2.882,0,0,1,56-8.455a4.1,4.1,0,0,1,.747,2.6Z" transform="translate(281 206)"/>
  </g>
</svg>
