<svg xmlns="http://www.w3.org/2000/svg" width="154.043" height="61.865" viewBox="0 0 154.043 61.865">
  <g id="Group_6" data-name="Group 6" transform="translate(-418.479 -168.123)">
    <circle id="Ellipse_117" data-name="Ellipse 117" cx="2.529" cy="2.529" r="2.529" transform="matrix(0.252, -0.968, 0.968, 0.252, 558.927, 225.888)"/>
    <circle id="Ellipse_310" data-name="Ellipse 310" cx="2.529" cy="2.529" r="2.529" transform="matrix(0.252, -0.968, 0.968, 0.252, 558.927, 175.789)"/>
    <ellipse id="Ellipse_227" data-name="Ellipse 227" cx="2.529" cy="2.529" rx="2.529" ry="2.529" transform="translate(427.18 227.164) rotate(-104.616)"/>
    <ellipse id="Ellipse_327" data-name="Ellipse 327" cx="2.529" cy="2.529" rx="2.529" ry="2.529" transform="translate(427.18 177.065) rotate(-104.616)"/>
    <circle id="Ellipse_121" data-name="Ellipse 121" cx="0.997" cy="0.997" r="0.997" transform="translate(569.635 223.144)"/>
    <circle id="Ellipse_316" data-name="Ellipse 316" cx="0.997" cy="0.997" r="0.997" transform="translate(569.635 173.045)"/>
    <ellipse id="Ellipse_229" data-name="Ellipse 229" cx="0.997" cy="0.997" rx="0.997" ry="0.997" transform="translate(419.371 223.144)"/>
    <ellipse id="Ellipse_328" data-name="Ellipse 328" cx="0.997" cy="0.997" rx="0.997" ry="0.997" transform="translate(419.371 173.045)"/>
    <circle id="Ellipse_165" data-name="Ellipse 165" cx="4.426" cy="4.426" r="4.426" transform="matrix(0.24, -0.971, 0.971, 0.24, 505.952, 184.991)"/>
    <ellipse id="Ellipse_234" data-name="Ellipse 234" cx="4.426" cy="4.426" rx="4.426" ry="4.426" transform="translate(476.455 187.117) rotate(-103.893)"/>
    <ellipse id="Ellipse_295" data-name="Ellipse 295" cx="4.426" cy="4.426" rx="4.426" ry="4.426" transform="translate(484.393 187.361) rotate(-103.893)"/>
    <ellipse id="Ellipse_302" data-name="Ellipse 302" cx="4.426" cy="4.426" rx="4.426" ry="4.426" transform="translate(492.393 187.361) rotate(-103.893)"/>
    <ellipse id="Ellipse_309" data-name="Ellipse 309" cx="4.426" cy="4.426" rx="4.426" ry="4.426" transform="translate(501.013 187.361) rotate(-103.893)"/>
    <circle id="Ellipse_166" data-name="Ellipse 166" cx="4.426" cy="4.426" r="4.426" transform="translate(506.179 193.374) rotate(-76.107)"/>
    <ellipse id="Ellipse_235" data-name="Ellipse 235" cx="4.426" cy="4.426" rx="4.426" ry="4.426" transform="translate(476.228 195.5) rotate(-103.893)"/>
    <ellipse id="Ellipse_294" data-name="Ellipse 294" cx="4.426" cy="4.426" rx="4.426" ry="4.426" transform="translate(484.166 195.744) rotate(-103.893)"/>
    <ellipse id="Ellipse_301" data-name="Ellipse 301" cx="4.426" cy="4.426" rx="4.426" ry="4.426" transform="translate(492.166 195.744) rotate(-103.893)"/>
    <ellipse id="Ellipse_308" data-name="Ellipse 308" cx="4.426" cy="4.426" rx="4.426" ry="4.426" transform="translate(500.787 195.744) rotate(-103.893)"/>
    <circle id="Ellipse_167" data-name="Ellipse 167" cx="4.426" cy="4.426" r="4.426" transform="translate(506.178 201.983) rotate(-76.107)"/>
    <ellipse id="Ellipse_236" data-name="Ellipse 236" cx="4.426" cy="4.426" rx="4.426" ry="4.426" transform="translate(476.229 204.109) rotate(-103.893)"/>
    <ellipse id="Ellipse_293" data-name="Ellipse 293" cx="4.426" cy="4.426" rx="4.426" ry="4.426" transform="translate(484.167 204.354) rotate(-103.893)"/>
    <ellipse id="Ellipse_300" data-name="Ellipse 300" cx="4.426" cy="4.426" rx="4.426" ry="4.426" transform="translate(492.167 204.354) rotate(-103.893)"/>
    <ellipse id="Ellipse_307" data-name="Ellipse 307" cx="4.426" cy="4.426" rx="4.426" ry="4.426" transform="translate(500.787 204.354) rotate(-103.893)"/>
    <circle id="Ellipse_168" data-name="Ellipse 168" cx="4.426" cy="4.426" r="4.426" transform="matrix(0.24, -0.971, 0.971, 0.24, 506.146, 210.334)"/>
    <ellipse id="Ellipse_237" data-name="Ellipse 237" cx="4.426" cy="4.426" rx="4.426" ry="4.426" transform="translate(476.261 212.459) rotate(-103.893)"/>
    <ellipse id="Ellipse_292" data-name="Ellipse 292" cx="4.426" cy="4.426" rx="4.426" ry="4.426" transform="translate(484.199 212.704) rotate(-103.893)"/>
    <ellipse id="Ellipse_299" data-name="Ellipse 299" cx="4.426" cy="4.426" rx="4.426" ry="4.426" transform="translate(492.199 212.704) rotate(-103.893)"/>
    <ellipse id="Ellipse_306" data-name="Ellipse 306" cx="4.426" cy="4.426" rx="4.426" ry="4.426" transform="translate(500.819 212.704) rotate(-103.893)"/>
    <circle id="Ellipse_169" data-name="Ellipse 169" cx="4.426" cy="4.426" r="4.426" transform="matrix(0.24, -0.971, 0.971, 0.24, 506.114, 219.04)"/>
    <ellipse id="Ellipse_238" data-name="Ellipse 238" cx="4.426" cy="4.426" rx="4.426" ry="4.426" transform="translate(476.293 221.165) rotate(-103.893)"/>
    <ellipse id="Ellipse_291" data-name="Ellipse 291" cx="4.426" cy="4.426" rx="4.426" ry="4.426" transform="translate(484.231 221.41) rotate(-103.893)"/>
    <ellipse id="Ellipse_298" data-name="Ellipse 298" cx="4.426" cy="4.426" rx="4.426" ry="4.426" transform="translate(492.231 221.41) rotate(-103.893)"/>
    <ellipse id="Ellipse_305" data-name="Ellipse 305" cx="4.426" cy="4.426" rx="4.426" ry="4.426" transform="translate(500.852 221.41) rotate(-103.893)"/>
    <circle id="Ellipse_170" data-name="Ellipse 170" cx="3.979" cy="3.979" r="3.979" transform="matrix(0.169, -0.986, 0.986, 0.169, 506.808, 227.287)"/>
    <circle id="Ellipse_317" data-name="Ellipse 317" cx="3.979" cy="3.979" r="3.979" transform="matrix(0.169, -0.986, 0.986, 0.169, 506.808, 177.188)"/>
    <ellipse id="Ellipse_239" data-name="Ellipse 239" cx="3.979" cy="3.979" rx="3.979" ry="3.979" transform="translate(476.349 228.629) rotate(-99.714)"/>
    <ellipse id="Ellipse_321" data-name="Ellipse 321" cx="3.979" cy="3.979" rx="3.979" ry="3.979" transform="translate(476.349 178.531) rotate(-99.714)"/>
    <ellipse id="Ellipse_290" data-name="Ellipse 290" cx="3.979" cy="3.979" rx="3.979" ry="3.979" transform="translate(484.287 228.874) rotate(-99.714)"/>
    <ellipse id="Ellipse_320" data-name="Ellipse 320" cx="3.979" cy="3.979" rx="3.979" ry="3.979" transform="translate(484.287 178.775) rotate(-99.714)"/>
    <ellipse id="Ellipse_297" data-name="Ellipse 297" cx="3.979" cy="3.979" rx="3.979" ry="3.979" transform="translate(492.287 228.874) rotate(-99.714)"/>
    <ellipse id="Ellipse_319" data-name="Ellipse 319" cx="3.979" cy="3.979" rx="3.979" ry="3.979" transform="translate(492.287 178.775) rotate(-99.714)"/>
    <ellipse id="Ellipse_304" data-name="Ellipse 304" cx="3.979" cy="3.979" rx="3.979" ry="3.979" transform="translate(500.907 228.874) rotate(-99.714)"/>
    <ellipse id="Ellipse_318" data-name="Ellipse 318" cx="3.979" cy="3.979" rx="3.979" ry="3.979" transform="translate(500.907 178.775) rotate(-99.714)"/>
    <circle id="Ellipse_171" data-name="Ellipse 171" cx="4.189" cy="4.189" r="4.189" transform="translate(514.427 221.2) rotate(-15.203)"/>
    <circle id="Ellipse_315" data-name="Ellipse 315" cx="4.189" cy="4.189" r="4.189" transform="translate(514.427 171.102) rotate(-15.203)"/>
    <ellipse id="Ellipse_240" data-name="Ellipse 240" cx="4.189" cy="4.189" rx="4.189" ry="4.189" transform="matrix(-0.965, -0.262, 0.262, -0.965, 474.376, 229.285)"/>
    <ellipse id="Ellipse_322" data-name="Ellipse 322" cx="4.189" cy="4.189" rx="4.189" ry="4.189" transform="matrix(-0.965, -0.262, 0.262, -0.965, 474.376, 179.186)"/>
    <circle id="Ellipse_172" data-name="Ellipse 172" cx="3.998" cy="3.998" r="3.998" transform="matrix(0.356, -0.934, 0.934, 0.356, 523.219, 226.355)"/>
    <circle id="Ellipse_314" data-name="Ellipse 314" cx="3.998" cy="3.998" r="3.998" transform="matrix(0.356, -0.934, 0.934, 0.356, 523.219, 176.257)"/>
    <ellipse id="Ellipse_241" data-name="Ellipse 241" cx="3.998" cy="3.998" rx="3.998" ry="3.998" transform="translate(460.31 229.206) rotate(-110.883)"/>
    <ellipse id="Ellipse_323" data-name="Ellipse 323" cx="3.998" cy="3.998" rx="3.998" ry="3.998" transform="translate(460.31 179.107) rotate(-110.883)"/>
    <circle id="Ellipse_173" data-name="Ellipse 173" cx="3.845" cy="3.845" r="3.845" transform="matrix(0.475, -0.88, 0.88, 0.475, 548.418, 225.614)"/>
    <circle id="Ellipse_311" data-name="Ellipse 311" cx="3.845" cy="3.845" r="3.845" transform="matrix(0.475, -0.88, 0.88, 0.475, 548.418, 175.516)"/>
    <ellipse id="Ellipse_230" data-name="Ellipse 230" cx="3.845" cy="3.845" rx="3.845" ry="3.845" transform="translate(435.814 229.266) rotate(-118.348)"/>
    <ellipse id="Ellipse_326" data-name="Ellipse 326" cx="3.845" cy="3.845" rx="3.845" ry="3.845" transform="translate(435.814 179.167) rotate(-118.348)"/>
    <circle id="Ellipse_174" data-name="Ellipse 174" cx="4.258" cy="4.258" r="4.258" transform="matrix(0.54, -0.841, 0.841, 0.54, 530.739, 225.387)"/>
    <circle id="Ellipse_313" data-name="Ellipse 313" cx="4.258" cy="4.258" r="4.258" transform="matrix(0.54, -0.841, 0.841, 0.54, 530.739, 175.288)"/>
    <ellipse id="Ellipse_242" data-name="Ellipse 242" cx="4.258" cy="4.258" rx="4.258" ry="4.258" transform="matrix(-0.54, -0.841, 0.841, -0.54, 453.096, 229.988)"/>
    <ellipse id="Ellipse_324" data-name="Ellipse 324" cx="4.258" cy="4.258" rx="4.258" ry="4.258" transform="matrix(-0.54, -0.841, 0.841, -0.54, 453.096, 179.889)"/>
    <circle id="Ellipse_175" data-name="Ellipse 175" cx="4.258" cy="4.258" r="4.258" transform="matrix(0.54, -0.841, 0.841, 0.54, 539.128, 225.387)"/>
    <circle id="Ellipse_312" data-name="Ellipse 312" cx="4.258" cy="4.258" r="4.258" transform="matrix(0.54, -0.841, 0.841, 0.54, 539.128, 175.288)"/>
    <ellipse id="Ellipse_243" data-name="Ellipse 243" cx="4.258" cy="4.258" rx="4.258" ry="4.258" transform="matrix(-0.54, -0.841, 0.841, -0.54, 444.706, 229.988)"/>
    <ellipse id="Ellipse_325" data-name="Ellipse 325" cx="4.258" cy="4.258" rx="4.258" ry="4.258" transform="matrix(-0.54, -0.841, 0.841, -0.54, 444.706, 179.889)"/>
    <circle id="Ellipse_176" data-name="Ellipse 176" cx="4.426" cy="4.426" r="4.426" transform="translate(514.334 185.057) rotate(-76.107)"/>
    <ellipse id="Ellipse_244" data-name="Ellipse 244" cx="4.426" cy="4.426" rx="4.426" ry="4.426" transform="translate(468.073 187.182) rotate(-103.893)"/>
    <circle id="Ellipse_177" data-name="Ellipse 177" cx="4.767" cy="4.767" r="4.767" transform="translate(513.059 188.711) rotate(-32.028)"/>
    <ellipse id="Ellipse_245" data-name="Ellipse 245" cx="4.767" cy="4.767" rx="4.767" ry="4.767" transform="matrix(-0.848, -0.53, 0.53, -0.848, 472.885, 196.794)"/>
    <circle id="Ellipse_178" data-name="Ellipse 178" cx="4.716" cy="4.716" r="4.716" transform="translate(513.018 197.983) rotate(-37.945)"/>
    <ellipse id="Ellipse_246" data-name="Ellipse 246" cx="4.716" cy="4.716" rx="4.716" ry="4.716" transform="translate(472.183 205.422) rotate(-142.055)"/>
    <circle id="Ellipse_179" data-name="Ellipse 179" cx="4.716" cy="4.716" r="4.716" transform="translate(513.18 206.398) rotate(-37.945)"/>
    <ellipse id="Ellipse_247" data-name="Ellipse 247" cx="4.716" cy="4.716" rx="4.716" ry="4.716" transform="translate(472.021 213.837) rotate(-142.055)"/>
    <circle id="Ellipse_180" data-name="Ellipse 180" cx="4.716" cy="4.716" r="4.716" transform="translate(513.309 214.943) rotate(-37.945)"/>
    <circle id="Ellipse_248" data-name="Ellipse 248" cx="4.716" cy="4.716" r="4.716" transform="translate(471.892 222.381) rotate(-142.055)"/>
    <circle id="Ellipse_182" data-name="Ellipse 182" cx="4.074" cy="4.074" r="4.074" transform="translate(524.149 185.666) rotate(-87.956)"/>
    <ellipse id="Ellipse_249" data-name="Ellipse 249" cx="4.074" cy="4.074" rx="4.074" ry="4.074" transform="translate(458.708 185.957) rotate(-92.044)"/>
    <circle id="Ellipse_183" data-name="Ellipse 183" cx="4.074" cy="4.074" r="4.074" transform="translate(532.469 185.766) rotate(-87.956)"/>
    <ellipse id="Ellipse_250" data-name="Ellipse 250" cx="4.074" cy="4.074" rx="4.074" ry="4.074" transform="translate(450.389 186.057) rotate(-92.044)"/>
    <circle id="Ellipse_185" data-name="Ellipse 185" cx="4.074" cy="4.074" r="4.074" transform="translate(540.887 185.832) rotate(-87.956)"/>
    <ellipse id="Ellipse_252" data-name="Ellipse 252" cx="4.074" cy="4.074" rx="4.074" ry="4.074" transform="translate(441.97 186.123) rotate(-92.044)"/>
    <circle id="Ellipse_186" data-name="Ellipse 186" cx="4.384" cy="4.384" r="4.384" transform="translate(549.048 194.239) rotate(-86.853)"/>
    <circle id="Ellipse_331" data-name="Ellipse 331" cx="4.384" cy="4.384" r="4.384" transform="translate(549.048 186.163) rotate(-86.853)"/>
    <ellipse id="Ellipse_253" data-name="Ellipse 253" cx="4.384" cy="4.384" rx="4.384" ry="4.384" transform="matrix(-0.055, -0.998, 0.998, -0.055, 433.198, 194.721)"/>
    <ellipse id="Ellipse_329" data-name="Ellipse 329" cx="4.384" cy="4.384" rx="4.384" ry="4.384" transform="matrix(-0.055, -0.998, 0.998, -0.055, 433.198, 186.645)"/>
    <circle id="Ellipse_187" data-name="Ellipse 187" cx="4.696" cy="4.696" r="4.696" transform="translate(539.236 193.201) rotate(-72.569)"/>
    <ellipse id="Ellipse_254" data-name="Ellipse 254" cx="4.696" cy="4.696" rx="4.696" ry="4.696" transform="translate(442.802 196.015) rotate(-107.431)"/>
    <circle id="Ellipse_188" data-name="Ellipse 188" cx="4.696" cy="4.696" r="4.696" transform="translate(530.918 193.368) rotate(-72.569)"/>
    <ellipse id="Ellipse_255" data-name="Ellipse 255" cx="4.696" cy="4.696" rx="4.696" ry="4.696" transform="translate(451.121 196.182) rotate(-107.431)"/>
    <circle id="Ellipse_189" data-name="Ellipse 189" cx="4.696" cy="4.696" r="4.696" transform="translate(522.366 193.335) rotate(-72.569)"/>
    <ellipse id="Ellipse_256" data-name="Ellipse 256" cx="4.696" cy="4.696" rx="4.696" ry="4.696" transform="translate(459.672 196.148) rotate(-107.431)"/>
    <circle id="Ellipse_190" data-name="Ellipse 190" cx="4.447" cy="4.447" r="4.447" transform="translate(523.05 195.366) rotate(-12.926)"/>
    <ellipse id="Ellipse_257" data-name="Ellipse 257" cx="4.447" cy="4.447" rx="4.447" ry="4.447" transform="translate(465.961 204.034) rotate(-167.074)"/>
    <circle id="Ellipse_191" data-name="Ellipse 191" cx="4.447" cy="4.447" r="4.447" transform="translate(531.235 195.466) rotate(-12.926)"/>
    <ellipse id="Ellipse_258" data-name="Ellipse 258" cx="4.447" cy="4.447" rx="4.447" ry="4.447" transform="translate(457.775 204.133) rotate(-167.074)"/>
    <circle id="Ellipse_192" data-name="Ellipse 192" cx="4.447" cy="4.447" r="4.447" transform="translate(539.621 195.499) rotate(-12.926)"/>
    <ellipse id="Ellipse_259" data-name="Ellipse 259" cx="4.447" cy="4.447" rx="4.447" ry="4.447" transform="translate(449.39 204.167) rotate(-167.074)"/>
    <circle id="Ellipse_193" data-name="Ellipse 193" cx="4.447" cy="4.447" r="4.447" transform="translate(548.372 212.436) rotate(-12.926)"/>
    <ellipse id="Ellipse_260" data-name="Ellipse 260" cx="4.447" cy="4.447" rx="4.447" ry="4.447" transform="translate(440.639 221.104) rotate(-167.074)"/>
    <circle id="Ellipse_194" data-name="Ellipse 194" cx="4.447" cy="4.447" r="4.447" transform="translate(539.854 203.751) rotate(-12.926)"/>
    <ellipse id="Ellipse_261" data-name="Ellipse 261" cx="4.447" cy="4.447" rx="4.447" ry="4.447" transform="translate(449.157 212.419) rotate(-167.074)"/>
    <circle id="Ellipse_195" data-name="Ellipse 195" cx="4.447" cy="4.447" r="4.447" transform="translate(531.402 203.784) rotate(-12.926)"/>
    <ellipse id="Ellipse_262" data-name="Ellipse 262" cx="4.447" cy="4.447" rx="4.447" ry="4.447" transform="translate(457.609 212.452) rotate(-167.074)"/>
    <circle id="Ellipse_196" data-name="Ellipse 196" cx="4.447" cy="4.447" r="4.447" transform="translate(523.017 203.851) rotate(-12.926)"/>
    <ellipse id="Ellipse_263" data-name="Ellipse 263" cx="4.447" cy="4.447" rx="4.447" ry="4.447" transform="translate(465.994 212.519) rotate(-167.074)"/>
    <circle id="Ellipse_197" data-name="Ellipse 197" cx="4.447" cy="4.447" r="4.447" transform="translate(523.05 212.503) rotate(-12.926)"/>
    <ellipse id="Ellipse_264" data-name="Ellipse 264" cx="4.447" cy="4.447" rx="4.447" ry="4.447" transform="translate(465.961 221.17) rotate(-167.074)"/>
    <circle id="Ellipse_198" data-name="Ellipse 198" cx="4.447" cy="4.447" r="4.447" transform="translate(531.269 212.47) rotate(-12.926)"/>
    <ellipse id="Ellipse_265" data-name="Ellipse 265" cx="4.447" cy="4.447" rx="4.447" ry="4.447" transform="translate(457.742 221.137) rotate(-167.074)"/>
    <circle id="Ellipse_199" data-name="Ellipse 199" cx="4.447" cy="4.447" r="4.447" transform="translate(539.621 212.436) rotate(-12.926)"/>
    <ellipse id="Ellipse_266" data-name="Ellipse 266" cx="4.447" cy="4.447" rx="4.447" ry="4.447" transform="translate(449.39 221.104) rotate(-167.074)"/>
    <circle id="Ellipse_200" data-name="Ellipse 200" cx="4.614" cy="4.614" r="4.614" transform="translate(547.34 197.653) rotate(-35.122)"/>
    <ellipse id="Ellipse_267" data-name="Ellipse 267" cx="4.614" cy="4.614" rx="4.614" ry="4.614" transform="matrix(-0.818, -0.575, 0.575, -0.818, 438.351, 205.202)"/>
    <circle id="Ellipse_201" data-name="Ellipse 201" cx="4.614" cy="4.614" r="4.614" transform="translate(547.207 206.072) rotate(-35.122)"/>
    <ellipse id="Ellipse_268" data-name="Ellipse 268" cx="4.614" cy="4.614" rx="4.614" ry="4.614" transform="matrix(-0.818, -0.575, 0.575, -0.818, 438.483, 213.621)"/>
    <circle id="Ellipse_206" data-name="Ellipse 206" cx="1.5" cy="1.5" r="1.5" transform="translate(569.215 214.306)"/>
    <ellipse id="Ellipse_272" data-name="Ellipse 272" cx="1.5" cy="1.5" rx="1.5" ry="1.5" transform="translate(418.784 214.306)"/>
    <circle id="Ellipse_207" data-name="Ellipse 207" cx="1.944" cy="1.944" r="1.944" transform="translate(568.633 205.089)"/>
    <ellipse id="Ellipse_273" data-name="Ellipse 273" cx="1.944" cy="1.944" rx="1.944" ry="1.944" transform="translate(418.479 205.089)"/>
    <circle id="Ellipse_213" data-name="Ellipse 213" cx="1.791" cy="1.791" r="1.791" transform="translate(568.848 197.066)"/>
    <ellipse id="Ellipse_274" data-name="Ellipse 274" cx="1.791" cy="1.791" rx="1.791" ry="1.791" transform="translate(418.57 197.066)"/>
    <circle id="Ellipse_215" data-name="Ellipse 215" cx="1.301" cy="1.301" r="1.301" transform="translate(569.368 188.86)"/>
    <ellipse id="Ellipse_275" data-name="Ellipse 275" cx="1.301" cy="1.301" rx="1.301" ry="1.301" transform="translate(419.029 188.86)"/>
    <circle id="Ellipse_216" data-name="Ellipse 216" cx="0.842" cy="0.842" r="0.842" transform="translate(569.735 180.93)"/>
    <ellipse id="Ellipse_283" data-name="Ellipse 283" cx="0.842" cy="0.842" rx="0.842" ry="0.842" transform="translate(419.581 180.93)"/>
    <circle id="Ellipse_218" data-name="Ellipse 218" cx="3.66" cy="3.66" r="3.66" transform="translate(558.319 203.423)"/>
    <ellipse id="Ellipse_276" data-name="Ellipse 276" cx="3.66" cy="3.66" rx="3.66" ry="3.66" transform="translate(425.361 203.423)"/>
    <circle id="Ellipse_219" data-name="Ellipse 219" cx="3.792" cy="3.792" r="3.792" transform="translate(558.158 194.96)"/>
    <ellipse id="Ellipse_277" data-name="Ellipse 277" cx="3.792" cy="3.792" rx="3.792" ry="3.792" transform="translate(425.259 194.96)"/>
    <circle id="Ellipse_220" data-name="Ellipse 220" cx="3.358" cy="3.358" r="3.358" transform="translate(558.557 186.645)"/>
    <circle id="Ellipse_332" data-name="Ellipse 332" cx="3.358" cy="3.358" r="3.358" transform="translate(558.557 178.568)"/>
    <ellipse id="Ellipse_278" data-name="Ellipse 278" cx="3.358" cy="3.358" rx="3.358" ry="3.358" transform="translate(425.728 186.645)"/>
    <ellipse id="Ellipse_330" data-name="Ellipse 330" cx="3.358" cy="3.358" rx="3.358" ry="3.358" transform="translate(425.728 178.568)"/>
    <circle id="Ellipse_221" data-name="Ellipse 221" cx="3.358" cy="3.358" r="3.358" transform="translate(558.623 212.433)"/>
    <ellipse id="Ellipse_279" data-name="Ellipse 279" cx="3.358" cy="3.358" rx="3.358" ry="3.358" transform="translate(425.662 212.433)"/>
    <text id="Button" transform="translate(467 206)" fill="none" stroke="#fff" stroke-width="5" font-size="18" font-family="FontysFrutigerBold, Fontys Frutiger"><tspan x="0" y="0">Button</tspan></text>
    <text id="Button-2" data-name="Button" transform="translate(467 206)" font-size="18" font-family="FontysFrutigerBold, Fontys Frutiger"><tspan x="0" y="0">Button</tspan></text>
  </g>
</svg>
