<svg xmlns="http://www.w3.org/2000/svg" width="154.043" height="61.865" viewBox="0 0 154.043 61.865">
  <circle id="Ellipse_117" data-name="Ellipse 117" cx="2.529" cy="2.529" r="2.529" transform="matrix(0.252, -0.968, 0.968, 0.252, 140.448, 57.765)"/>
  <circle id="Ellipse_310" data-name="Ellipse 310" cx="2.529" cy="2.529" r="2.529" transform="matrix(0.252, -0.968, 0.968, 0.252, 140.448, 7.666)"/>
  <ellipse id="Ellipse_227" data-name="Ellipse 227" cx="2.529" cy="2.529" rx="2.529" ry="2.529" transform="translate(8.701 59.041) rotate(-104.616)"/>
  <ellipse id="Ellipse_327" data-name="Ellipse 327" cx="2.529" cy="2.529" rx="2.529" ry="2.529" transform="translate(8.701 8.943) rotate(-104.616)"/>
  <circle id="Ellipse_121" data-name="Ellipse 121" cx="0.997" cy="0.997" r="0.997" transform="translate(151.156 55.021)"/>
  <circle id="Ellipse_316" data-name="Ellipse 316" cx="0.997" cy="0.997" r="0.997" transform="translate(151.156 4.922)"/>
  <ellipse id="Ellipse_229" data-name="Ellipse 229" cx="0.997" cy="0.997" rx="0.997" ry="0.997" transform="translate(0.892 55.021)"/>
  <ellipse id="Ellipse_328" data-name="Ellipse 328" cx="0.997" cy="0.997" rx="0.997" ry="0.997" transform="translate(0.892 4.922)"/>
  <circle id="Ellipse_165" data-name="Ellipse 165" cx="4.426" cy="4.426" r="4.426" transform="matrix(0.24, -0.971, 0.971, 0.24, 87.474, 16.868)"/>
  <ellipse id="Ellipse_234" data-name="Ellipse 234" cx="4.426" cy="4.426" rx="4.426" ry="4.426" transform="translate(57.976 18.994) rotate(-103.893)"/>
  <ellipse id="Ellipse_295" data-name="Ellipse 295" cx="4.426" cy="4.426" rx="4.426" ry="4.426" transform="translate(65.914 19.239) rotate(-103.893)"/>
  <ellipse id="Ellipse_302" data-name="Ellipse 302" cx="4.426" cy="4.426" rx="4.426" ry="4.426" transform="translate(73.914 19.239) rotate(-103.893)"/>
  <ellipse id="Ellipse_309" data-name="Ellipse 309" cx="4.426" cy="4.426" rx="4.426" ry="4.426" transform="translate(82.535 19.239) rotate(-103.893)"/>
  <circle id="Ellipse_166" data-name="Ellipse 166" cx="4.426" cy="4.426" r="4.426" transform="translate(87.7 25.251) rotate(-76.107)"/>
  <ellipse id="Ellipse_235" data-name="Ellipse 235" cx="4.426" cy="4.426" rx="4.426" ry="4.426" transform="translate(57.75 27.377) rotate(-103.893)"/>
  <ellipse id="Ellipse_294" data-name="Ellipse 294" cx="4.426" cy="4.426" rx="4.426" ry="4.426" transform="translate(65.688 27.621) rotate(-103.893)"/>
  <ellipse id="Ellipse_301" data-name="Ellipse 301" cx="4.426" cy="4.426" rx="4.426" ry="4.426" transform="translate(73.688 27.621) rotate(-103.893)"/>
  <ellipse id="Ellipse_308" data-name="Ellipse 308" cx="4.426" cy="4.426" rx="4.426" ry="4.426" transform="translate(82.308 27.621) rotate(-103.893)"/>
  <circle id="Ellipse_167" data-name="Ellipse 167" cx="4.426" cy="4.426" r="4.426" transform="translate(87.7 33.861) rotate(-76.107)"/>
  <ellipse id="Ellipse_236" data-name="Ellipse 236" cx="4.426" cy="4.426" rx="4.426" ry="4.426" transform="translate(57.75 35.986) rotate(-103.893)"/>
  <ellipse id="Ellipse_293" data-name="Ellipse 293" cx="4.426" cy="4.426" rx="4.426" ry="4.426" transform="translate(65.688 36.231) rotate(-103.893)"/>
  <ellipse id="Ellipse_300" data-name="Ellipse 300" cx="4.426" cy="4.426" rx="4.426" ry="4.426" transform="translate(73.688 36.231) rotate(-103.893)"/>
  <ellipse id="Ellipse_307" data-name="Ellipse 307" cx="4.426" cy="4.426" rx="4.426" ry="4.426" transform="translate(82.309 36.231) rotate(-103.893)"/>
  <circle id="Ellipse_168" data-name="Ellipse 168" cx="4.426" cy="4.426" r="4.426" transform="matrix(0.24, -0.971, 0.971, 0.24, 87.667, 42.211)"/>
  <ellipse id="Ellipse_237" data-name="Ellipse 237" cx="4.426" cy="4.426" rx="4.426" ry="4.426" transform="translate(57.782 44.336) rotate(-103.893)"/>
  <ellipse id="Ellipse_292" data-name="Ellipse 292" cx="4.426" cy="4.426" rx="4.426" ry="4.426" transform="translate(65.72 44.581) rotate(-103.893)"/>
  <ellipse id="Ellipse_299" data-name="Ellipse 299" cx="4.426" cy="4.426" rx="4.426" ry="4.426" transform="translate(73.72 44.581) rotate(-103.893)"/>
  <ellipse id="Ellipse_306" data-name="Ellipse 306" cx="4.426" cy="4.426" rx="4.426" ry="4.426" transform="translate(82.341 44.581) rotate(-103.893)"/>
  <circle id="Ellipse_169" data-name="Ellipse 169" cx="4.426" cy="4.426" r="4.426" transform="matrix(0.24, -0.971, 0.971, 0.24, 87.635, 50.917)"/>
  <ellipse id="Ellipse_238" data-name="Ellipse 238" cx="4.426" cy="4.426" rx="4.426" ry="4.426" transform="translate(57.815 53.042) rotate(-103.893)"/>
  <ellipse id="Ellipse_291" data-name="Ellipse 291" cx="4.426" cy="4.426" rx="4.426" ry="4.426" transform="translate(65.753 53.287) rotate(-103.893)"/>
  <ellipse id="Ellipse_298" data-name="Ellipse 298" cx="4.426" cy="4.426" rx="4.426" ry="4.426" transform="translate(73.753 53.287) rotate(-103.893)"/>
  <ellipse id="Ellipse_305" data-name="Ellipse 305" cx="4.426" cy="4.426" rx="4.426" ry="4.426" transform="translate(82.373 53.287) rotate(-103.893)"/>
  <circle id="Ellipse_170" data-name="Ellipse 170" cx="3.979" cy="3.979" r="3.979" transform="matrix(0.169, -0.986, 0.986, 0.169, 88.329, 59.164)"/>
  <circle id="Ellipse_317" data-name="Ellipse 317" cx="3.979" cy="3.979" r="3.979" transform="matrix(0.169, -0.986, 0.986, 0.169, 88.329, 9.066)"/>
  <ellipse id="Ellipse_239" data-name="Ellipse 239" cx="3.979" cy="3.979" rx="3.979" ry="3.979" transform="translate(57.87 60.507) rotate(-99.714)"/>
  <ellipse id="Ellipse_321" data-name="Ellipse 321" cx="3.979" cy="3.979" rx="3.979" ry="3.979" transform="translate(57.87 10.408) rotate(-99.714)"/>
  <ellipse id="Ellipse_290" data-name="Ellipse 290" cx="3.979" cy="3.979" rx="3.979" ry="3.979" transform="translate(65.808 60.751) rotate(-99.714)"/>
  <ellipse id="Ellipse_320" data-name="Ellipse 320" cx="3.979" cy="3.979" rx="3.979" ry="3.979" transform="translate(65.808 10.653) rotate(-99.714)"/>
  <ellipse id="Ellipse_297" data-name="Ellipse 297" cx="3.979" cy="3.979" rx="3.979" ry="3.979" transform="translate(73.808 60.751) rotate(-99.714)"/>
  <ellipse id="Ellipse_319" data-name="Ellipse 319" cx="3.979" cy="3.979" rx="3.979" ry="3.979" transform="translate(73.808 10.653) rotate(-99.714)"/>
  <ellipse id="Ellipse_304" data-name="Ellipse 304" cx="3.979" cy="3.979" rx="3.979" ry="3.979" transform="translate(82.429 60.751) rotate(-99.714)"/>
  <ellipse id="Ellipse_318" data-name="Ellipse 318" cx="3.979" cy="3.979" rx="3.979" ry="3.979" transform="translate(82.429 10.653) rotate(-99.714)"/>
  <circle id="Ellipse_171" data-name="Ellipse 171" cx="4.189" cy="4.189" r="4.189" transform="translate(95.949 53.077) rotate(-15.203)"/>
  <circle id="Ellipse_315" data-name="Ellipse 315" cx="4.189" cy="4.189" r="4.189" transform="translate(95.949 2.979) rotate(-15.203)"/>
  <ellipse id="Ellipse_240" data-name="Ellipse 240" cx="4.189" cy="4.189" rx="4.189" ry="4.189" transform="matrix(-0.965, -0.262, 0.262, -0.965, 55.897, 61.162)"/>
  <ellipse id="Ellipse_322" data-name="Ellipse 322" cx="4.189" cy="4.189" rx="4.189" ry="4.189" transform="matrix(-0.965, -0.262, 0.262, -0.965, 55.897, 11.063)"/>
  <circle id="Ellipse_172" data-name="Ellipse 172" cx="3.998" cy="3.998" r="3.998" transform="matrix(0.356, -0.934, 0.934, 0.356, 104.74, 58.233)"/>
  <circle id="Ellipse_314" data-name="Ellipse 314" cx="3.998" cy="3.998" r="3.998" transform="matrix(0.356, -0.934, 0.934, 0.356, 104.74, 8.134)"/>
  <ellipse id="Ellipse_241" data-name="Ellipse 241" cx="3.998" cy="3.998" rx="3.998" ry="3.998" transform="translate(41.831 61.083) rotate(-110.883)"/>
  <ellipse id="Ellipse_323" data-name="Ellipse 323" cx="3.998" cy="3.998" rx="3.998" ry="3.998" transform="translate(41.831 10.985) rotate(-110.883)"/>
  <circle id="Ellipse_173" data-name="Ellipse 173" cx="3.845" cy="3.845" r="3.845" transform="matrix(0.475, -0.88, 0.88, 0.475, 129.939, 57.492)"/>
  <circle id="Ellipse_311" data-name="Ellipse 311" cx="3.845" cy="3.845" r="3.845" transform="matrix(0.475, -0.88, 0.88, 0.475, 129.939, 7.393)"/>
  <ellipse id="Ellipse_230" data-name="Ellipse 230" cx="3.845" cy="3.845" rx="3.845" ry="3.845" transform="translate(17.336 61.143) rotate(-118.348)"/>
  <ellipse id="Ellipse_326" data-name="Ellipse 326" cx="3.845" cy="3.845" rx="3.845" ry="3.845" transform="translate(17.336 11.044) rotate(-118.348)"/>
  <circle id="Ellipse_174" data-name="Ellipse 174" cx="4.258" cy="4.258" r="4.258" transform="matrix(0.54, -0.841, 0.841, 0.54, 112.26, 57.264)"/>
  <circle id="Ellipse_313" data-name="Ellipse 313" cx="4.258" cy="4.258" r="4.258" transform="matrix(0.54, -0.841, 0.841, 0.54, 112.26, 7.165)"/>
  <ellipse id="Ellipse_242" data-name="Ellipse 242" cx="4.258" cy="4.258" rx="4.258" ry="4.258" transform="matrix(-0.54, -0.841, 0.841, -0.54, 34.617, 61.865)"/>
  <ellipse id="Ellipse_324" data-name="Ellipse 324" cx="4.258" cy="4.258" rx="4.258" ry="4.258" transform="matrix(-0.54, -0.841, 0.841, -0.54, 34.617, 11.766)"/>
  <circle id="Ellipse_175" data-name="Ellipse 175" cx="4.258" cy="4.258" r="4.258" transform="matrix(0.54, -0.841, 0.841, 0.54, 120.65, 57.264)"/>
  <circle id="Ellipse_312" data-name="Ellipse 312" cx="4.258" cy="4.258" r="4.258" transform="matrix(0.54, -0.841, 0.841, 0.54, 120.65, 7.165)"/>
  <ellipse id="Ellipse_243" data-name="Ellipse 243" cx="4.258" cy="4.258" rx="4.258" ry="4.258" transform="matrix(-0.54, -0.841, 0.841, -0.54, 26.228, 61.865)"/>
  <ellipse id="Ellipse_325" data-name="Ellipse 325" cx="4.258" cy="4.258" rx="4.258" ry="4.258" transform="matrix(-0.54, -0.841, 0.841, -0.54, 26.228, 11.766)"/>
  <circle id="Ellipse_176" data-name="Ellipse 176" cx="4.426" cy="4.426" r="4.426" transform="translate(95.856 16.934) rotate(-76.107)"/>
  <ellipse id="Ellipse_244" data-name="Ellipse 244" cx="4.426" cy="4.426" rx="4.426" ry="4.426" transform="translate(49.594 19.059) rotate(-103.893)"/>
  <circle id="Ellipse_177" data-name="Ellipse 177" cx="4.767" cy="4.767" r="4.767" transform="translate(94.58 20.588) rotate(-32.028)"/>
  <ellipse id="Ellipse_245" data-name="Ellipse 245" cx="4.767" cy="4.767" rx="4.767" ry="4.767" transform="matrix(-0.848, -0.53, 0.53, -0.848, 54.406, 28.672)"/>
  <circle id="Ellipse_178" data-name="Ellipse 178" cx="4.716" cy="4.716" r="4.716" transform="translate(94.539 29.861) rotate(-37.945)"/>
  <ellipse id="Ellipse_246" data-name="Ellipse 246" cx="4.716" cy="4.716" rx="4.716" ry="4.716" transform="translate(53.704 37.299) rotate(-142.055)"/>
  <circle id="Ellipse_179" data-name="Ellipse 179" cx="4.716" cy="4.716" r="4.716" transform="translate(94.701 38.276) rotate(-37.945)"/>
  <ellipse id="Ellipse_247" data-name="Ellipse 247" cx="4.716" cy="4.716" rx="4.716" ry="4.716" transform="translate(53.542 45.714) rotate(-142.055)"/>
  <circle id="Ellipse_180" data-name="Ellipse 180" cx="4.716" cy="4.716" r="4.716" transform="translate(94.83 46.821) rotate(-37.945)"/>
  <circle id="Ellipse_248" data-name="Ellipse 248" cx="4.716" cy="4.716" r="4.716" transform="translate(53.413 54.259) rotate(-142.055)"/>
  <circle id="Ellipse_182" data-name="Ellipse 182" cx="4.074" cy="4.074" r="4.074" transform="translate(105.671 17.543) rotate(-87.956)"/>
  <ellipse id="Ellipse_249" data-name="Ellipse 249" cx="4.074" cy="4.074" rx="4.074" ry="4.074" transform="translate(40.23 17.834) rotate(-92.044)"/>
  <circle id="Ellipse_183" data-name="Ellipse 183" cx="4.074" cy="4.074" r="4.074" transform="translate(113.99 17.643) rotate(-87.956)"/>
  <ellipse id="Ellipse_250" data-name="Ellipse 250" cx="4.074" cy="4.074" rx="4.074" ry="4.074" transform="translate(31.91 17.934) rotate(-92.044)"/>
  <circle id="Ellipse_185" data-name="Ellipse 185" cx="4.074" cy="4.074" r="4.074" transform="translate(122.409 17.709) rotate(-87.956)"/>
  <ellipse id="Ellipse_252" data-name="Ellipse 252" cx="4.074" cy="4.074" rx="4.074" ry="4.074" transform="translate(23.492 18) rotate(-92.044)"/>
  <circle id="Ellipse_186" data-name="Ellipse 186" cx="4.384" cy="4.384" r="4.384" transform="translate(130.569 26.117) rotate(-86.853)"/>
  <circle id="Ellipse_331" data-name="Ellipse 331" cx="4.384" cy="4.384" r="4.384" transform="translate(130.569 18.04) rotate(-86.853)"/>
  <ellipse id="Ellipse_253" data-name="Ellipse 253" cx="4.384" cy="4.384" rx="4.384" ry="4.384" transform="matrix(-0.055, -0.998, 0.998, -0.055, 14.719, 26.598)"/>
  <ellipse id="Ellipse_329" data-name="Ellipse 329" cx="4.384" cy="4.384" rx="4.384" ry="4.384" transform="matrix(-0.055, -0.998, 0.998, -0.055, 14.719, 18.522)"/>
  <circle id="Ellipse_187" data-name="Ellipse 187" cx="4.696" cy="4.696" r="4.696" transform="translate(120.758 25.078) rotate(-72.569)"/>
  <ellipse id="Ellipse_254" data-name="Ellipse 254" cx="4.696" cy="4.696" rx="4.696" ry="4.696" transform="translate(24.324 27.892) rotate(-107.431)"/>
  <circle id="Ellipse_188" data-name="Ellipse 188" cx="4.696" cy="4.696" r="4.696" transform="translate(112.439 25.245) rotate(-72.569)"/>
  <ellipse id="Ellipse_255" data-name="Ellipse 255" cx="4.696" cy="4.696" rx="4.696" ry="4.696" transform="translate(32.642 28.059) rotate(-107.431)"/>
  <circle id="Ellipse_189" data-name="Ellipse 189" cx="4.696" cy="4.696" r="4.696" transform="translate(103.888 25.212) rotate(-72.569)"/>
  <ellipse id="Ellipse_256" data-name="Ellipse 256" cx="4.696" cy="4.696" rx="4.696" ry="4.696" transform="translate(41.194 28.026) rotate(-107.431)"/>
  <circle id="Ellipse_190" data-name="Ellipse 190" cx="4.447" cy="4.447" r="4.447" transform="translate(104.571 27.243) rotate(-12.926)"/>
  <ellipse id="Ellipse_257" data-name="Ellipse 257" cx="4.447" cy="4.447" rx="4.447" ry="4.447" transform="translate(47.482 35.911) rotate(-167.074)"/>
  <circle id="Ellipse_191" data-name="Ellipse 191" cx="4.447" cy="4.447" r="4.447" transform="translate(112.757 27.343) rotate(-12.926)"/>
  <ellipse id="Ellipse_258" data-name="Ellipse 258" cx="4.447" cy="4.447" rx="4.447" ry="4.447" transform="translate(39.297 36.011) rotate(-167.074)"/>
  <circle id="Ellipse_192" data-name="Ellipse 192" cx="4.447" cy="4.447" r="4.447" transform="translate(121.143 27.376) rotate(-12.926)"/>
  <ellipse id="Ellipse_259" data-name="Ellipse 259" cx="4.447" cy="4.447" rx="4.447" ry="4.447" transform="translate(30.911 36.044) rotate(-167.074)"/>
  <circle id="Ellipse_193" data-name="Ellipse 193" cx="4.447" cy="4.447" r="4.447" transform="translate(129.894 44.313) rotate(-12.926)"/>
  <ellipse id="Ellipse_260" data-name="Ellipse 260" cx="4.447" cy="4.447" rx="4.447" ry="4.447" transform="translate(22.16 52.981) rotate(-167.074)"/>
  <circle id="Ellipse_194" data-name="Ellipse 194" cx="4.447" cy="4.447" r="4.447" transform="translate(121.375 35.628) rotate(-12.926)"/>
  <ellipse id="Ellipse_261" data-name="Ellipse 261" cx="4.447" cy="4.447" rx="4.447" ry="4.447" transform="translate(30.678 44.296) rotate(-167.074)"/>
  <circle id="Ellipse_195" data-name="Ellipse 195" cx="4.447" cy="4.447" r="4.447" transform="translate(112.923 35.661) rotate(-12.926)"/>
  <ellipse id="Ellipse_262" data-name="Ellipse 262" cx="4.447" cy="4.447" rx="4.447" ry="4.447" transform="translate(39.13 44.329) rotate(-167.074)"/>
  <circle id="Ellipse_196" data-name="Ellipse 196" cx="4.447" cy="4.447" r="4.447" transform="translate(104.538 35.728) rotate(-12.926)"/>
  <ellipse id="Ellipse_263" data-name="Ellipse 263" cx="4.447" cy="4.447" rx="4.447" ry="4.447" transform="translate(47.516 44.396) rotate(-167.074)"/>
  <circle id="Ellipse_197" data-name="Ellipse 197" cx="4.447" cy="4.447" r="4.447" transform="translate(104.571 44.38) rotate(-12.926)"/>
  <ellipse id="Ellipse_264" data-name="Ellipse 264" cx="4.447" cy="4.447" rx="4.447" ry="4.447" transform="translate(47.482 53.048) rotate(-167.074)"/>
  <circle id="Ellipse_198" data-name="Ellipse 198" cx="4.447" cy="4.447" r="4.447" transform="translate(112.79 44.347) rotate(-12.926)"/>
  <ellipse id="Ellipse_265" data-name="Ellipse 265" cx="4.447" cy="4.447" rx="4.447" ry="4.447" transform="translate(39.264 53.014) rotate(-167.074)"/>
  <circle id="Ellipse_199" data-name="Ellipse 199" cx="4.447" cy="4.447" r="4.447" transform="translate(121.143 44.313) rotate(-12.926)"/>
  <ellipse id="Ellipse_266" data-name="Ellipse 266" cx="4.447" cy="4.447" rx="4.447" ry="4.447" transform="translate(30.911 52.981) rotate(-167.074)"/>
  <circle id="Ellipse_200" data-name="Ellipse 200" cx="4.614" cy="4.614" r="4.614" transform="translate(128.861 29.531) rotate(-35.122)"/>
  <ellipse id="Ellipse_267" data-name="Ellipse 267" cx="4.614" cy="4.614" rx="4.614" ry="4.614" transform="matrix(-0.818, -0.575, 0.575, -0.818, 19.872, 37.079)"/>
  <circle id="Ellipse_201" data-name="Ellipse 201" cx="4.614" cy="4.614" r="4.614" transform="translate(128.729 37.95) rotate(-35.122)"/>
  <ellipse id="Ellipse_268" data-name="Ellipse 268" cx="4.614" cy="4.614" rx="4.614" ry="4.614" transform="matrix(-0.818, -0.575, 0.575, -0.818, 20.005, 45.498)"/>
  <circle id="Ellipse_206" data-name="Ellipse 206" cx="1.5" cy="1.5" r="1.5" transform="translate(150.736 46.183)"/>
  <ellipse id="Ellipse_272" data-name="Ellipse 272" cx="1.5" cy="1.5" rx="1.5" ry="1.5" transform="translate(0.306 46.183)"/>
  <circle id="Ellipse_207" data-name="Ellipse 207" cx="1.944" cy="1.944" r="1.944" transform="translate(150.154 36.966)"/>
  <ellipse id="Ellipse_273" data-name="Ellipse 273" cx="1.944" cy="1.944" rx="1.944" ry="1.944" transform="translate(0 36.966)"/>
  <circle id="Ellipse_213" data-name="Ellipse 213" cx="1.791" cy="1.791" r="1.791" transform="translate(150.369 28.944)"/>
  <ellipse id="Ellipse_274" data-name="Ellipse 274" cx="1.791" cy="1.791" rx="1.791" ry="1.791" transform="translate(0.091 28.944)"/>
  <circle id="Ellipse_215" data-name="Ellipse 215" cx="1.301" cy="1.301" r="1.301" transform="translate(150.89 20.738)"/>
  <ellipse id="Ellipse_275" data-name="Ellipse 275" cx="1.301" cy="1.301" rx="1.301" ry="1.301" transform="translate(0.551 20.738)"/>
  <circle id="Ellipse_216" data-name="Ellipse 216" cx="0.842" cy="0.842" r="0.842" transform="translate(151.257 12.807)"/>
  <ellipse id="Ellipse_283" data-name="Ellipse 283" cx="0.842" cy="0.842" rx="0.842" ry="0.842" transform="translate(1.102 12.807)"/>
  <circle id="Ellipse_218" data-name="Ellipse 218" cx="3.66" cy="3.66" r="3.66" transform="translate(139.84 35.3)"/>
  <ellipse id="Ellipse_276" data-name="Ellipse 276" cx="3.66" cy="3.66" rx="3.66" ry="3.66" transform="translate(6.882 35.3)"/>
  <circle id="Ellipse_219" data-name="Ellipse 219" cx="3.792" cy="3.792" r="3.792" transform="translate(139.679 26.837)"/>
  <ellipse id="Ellipse_277" data-name="Ellipse 277" cx="3.792" cy="3.792" rx="3.792" ry="3.792" transform="translate(6.781 26.837)"/>
  <circle id="Ellipse_220" data-name="Ellipse 220" cx="3.358" cy="3.358" r="3.358" transform="translate(140.078 18.522)"/>
  <circle id="Ellipse_332" data-name="Ellipse 332" cx="3.358" cy="3.358" r="3.358" transform="translate(140.078 10.446)"/>
  <ellipse id="Ellipse_278" data-name="Ellipse 278" cx="3.358" cy="3.358" rx="3.358" ry="3.358" transform="translate(7.25 18.522)"/>
  <ellipse id="Ellipse_330" data-name="Ellipse 330" cx="3.358" cy="3.358" rx="3.358" ry="3.358" transform="translate(7.25 10.446)"/>
  <circle id="Ellipse_221" data-name="Ellipse 221" cx="3.358" cy="3.358" r="3.358" transform="translate(140.145 44.31)"/>
  <ellipse id="Ellipse_279" data-name="Ellipse 279" cx="3.358" cy="3.358" rx="3.358" ry="3.358" transform="translate(7.183 44.31)"/>
  <text id="Button" transform="translate(48.521 37.877)" fill="none" stroke="#fff" stroke-width="5" font-size="18" font-family="FontysFrutigerBold, Fontys Frutiger"><tspan x="0" y="0">Button</tspan></text>
  <path id="Path_3" data-name="Path 3" d="M10.274-3.639A3.183,3.183,0,0,1,8.657-.633,5.623,5.623,0,0,1,5.854,0H1.459V-12.568H5.854a5.244,5.244,0,0,1,2.628.58A2.81,2.81,0,0,1,9.9-9.343a2.665,2.665,0,0,1-.681,1.859A3.1,3.1,0,0,1,7.4-6.53V-6.5a3.3,3.3,0,0,1,2.079.91A2.629,2.629,0,0,1,10.274-3.639ZM7.383-9.018A1.32,1.32,0,0,0,6.6-10.345a4.277,4.277,0,0,0-1.652-.237H3.981v3.094H5Q7.383-7.488,7.383-9.018Zm.378,5.286q0-1.885-2.593-1.885H3.981v3.63H5.168Q7.761-1.986,7.761-3.731ZM20.751,0H18.466V-1.257h-.035A3.777,3.777,0,0,1,15.39.22a2.871,2.871,0,0,1-2.4-1.037,4.068,4.068,0,0,1-.756-2.6V-9.272h2.417v4.948a5.451,5.451,0,0,0,.2,1.758,1.326,1.326,0,0,0,1.362.914,1.8,1.8,0,0,0,1.714-1.1,4.332,4.332,0,0,0,.413-1.986V-9.272h2.408ZM28.74,0a6.489,6.489,0,0,1-1.784.22A2.874,2.874,0,0,1,24.776-.6a3.038,3.038,0,0,1-.756-2.188v-4.72H22.245V-9.272h1.775v-1.854l2.417-.773v2.628h2.145v1.767H26.438v4.324q0,1.529,1.134,1.529a2.019,2.019,0,0,0,1.1-.255Zm7,0a6.489,6.489,0,0,1-1.784.22A2.874,2.874,0,0,1,31.781-.6a3.038,3.038,0,0,1-.756-2.188v-4.72H29.25V-9.272h1.775v-1.854l2.417-.773v2.628h2.145v1.767H33.442v4.324q0,1.529,1.134,1.529a2.019,2.019,0,0,0,1.1-.255ZM46.354-4.57a4.7,4.7,0,0,1-1.274,3.393A4.746,4.746,0,0,1,41.493.22a4.706,4.706,0,0,1-3.568-1.4A4.7,4.7,0,0,1,36.65-4.57a4.8,4.8,0,0,1,1.4-3.6,4.733,4.733,0,0,1,3.445-1.31,4.756,4.756,0,0,1,3.463,1.31A4.786,4.786,0,0,1,46.354-4.57Zm-2.522-.29a3.074,3.074,0,0,0-.571-1.907,2.1,2.1,0,0,0-1.767-.844,2.072,2.072,0,0,0-1.749.853,3.074,3.074,0,0,0-.58,1.9q0,3.208,2.329,3.208T43.831-4.86ZM56.751,0H54.343V-4.948a5.5,5.5,0,0,0-.2-1.758,1.341,1.341,0,0,0-1.371-.905,1.8,1.8,0,0,0-1.714,1.09,4.411,4.411,0,0,0-.4,1.986V0H48.234V-9.272H50.52v1.266h.044A3.508,3.508,0,0,1,53.6-9.483,2.882,2.882,0,0,1,56-8.455a4.1,4.1,0,0,1,.747,2.6Z" transform="translate(48.521 37.877)"/>
</svg>
