<svg xmlns="http://www.w3.org/2000/svg" width="25" height="25" viewBox="0 0 25 25">
  <g id="Group_41319" data-name="Group 41319" transform="translate(-659 -1058)">
    <g id="Rectangle_33" data-name="Rectangle 33" transform="translate(659 1058)" stroke="#000" stroke-width="1">
      <rect width="25" height="25" rx="12.5" stroke="none"/>
      <rect x="0.5" y="0.5" width="24" height="24" rx="12" fill="none"/>
    </g>
    <circle id="Ellipse_600" data-name="Ellipse 600" cx="1.654" cy="1.654" r="1.654" transform="translate(670.316 1072.518) rotate(-104.616)" fill="#fff"/>
    <circle id="Ellipse_607" data-name="Ellipse 607" cx="1.654" cy="1.654" r="1.654" transform="translate(670.316 1076.018) rotate(-104.616)" fill="#fff"/>
    <circle id="Ellipse_619" data-name="Ellipse 619" cx="1.654" cy="1.654" r="1.654" transform="translate(670.316 1079.518) rotate(-104.616)" fill="#fff"/>
    <circle id="Ellipse_612" data-name="Ellipse 612" cx="1.654" cy="1.654" r="1.654" transform="translate(670.316 1069.018) rotate(-104.616)" fill="#fff"/>
    <circle id="Ellipse_616" data-name="Ellipse 616" cx="1.654" cy="1.654" r="1.654" transform="translate(670.316 1065.518) rotate(-104.616)" fill="#fff"/>
    <circle id="Ellipse_603" data-name="Ellipse 603" cx="1.654" cy="1.654" r="1.654" transform="translate(666.816 1072.518) rotate(-104.616)" fill="#fff"/>
    <circle id="Ellipse_606" data-name="Ellipse 606" cx="1.654" cy="1.654" r="1.654" transform="translate(666.816 1076.018) rotate(-104.616)" fill="#fff"/>
    <circle id="Ellipse_618" data-name="Ellipse 618" cx="1.654" cy="1.654" r="1.654" transform="translate(666.816 1079.518) rotate(-104.616)" fill="#fff"/>
    <circle id="Ellipse_611" data-name="Ellipse 611" cx="1.654" cy="1.654" r="1.654" transform="translate(666.816 1069.018) rotate(-104.616)" fill="#fff"/>
    <circle id="Ellipse_615" data-name="Ellipse 615" cx="1.654" cy="1.654" r="1.654" transform="translate(666.816 1065.518) rotate(-104.616)" fill="#fff"/>
    <circle id="Ellipse_604" data-name="Ellipse 604" cx="1.654" cy="1.654" r="1.654" transform="translate(663.316 1072.518) rotate(-104.616)" fill="#fff"/>
    <circle id="Ellipse_605" data-name="Ellipse 605" cx="1.654" cy="1.654" r="1.654" transform="translate(663.316 1076.018) rotate(-104.616)" fill="#fff"/>
    <circle id="Ellipse_610" data-name="Ellipse 610" cx="1.654" cy="1.654" r="1.654" transform="translate(663.316 1069.018) rotate(-104.616)" fill="#fff"/>
    <circle id="Ellipse_621" data-name="Ellipse 621" cx="1" cy="1" r="1" transform="translate(664.046 1064.982) rotate(-104.616)" fill="#fff"/>
    <circle id="Ellipse_634" data-name="Ellipse 634" cx="1" cy="1" r="1" transform="translate(664.046 1078.458) rotate(-104.616)" fill="#fff"/>
    <circle id="Ellipse_636" data-name="Ellipse 636" cx="1" cy="1" r="1" transform="translate(677.523 1064.982) rotate(-104.616)" fill="#fff"/>
    <circle id="Ellipse_622" data-name="Ellipse 622" cx="0.875" cy="0.875" r="0.875" transform="translate(667.374 1061.482) rotate(-104.616)" fill="#fff"/>
    <circle id="Ellipse_627" data-name="Ellipse 627" cx="0.875" cy="0.875" r="0.875" transform="translate(667.374 1081.653) rotate(-104.616)" fill="#fff"/>
    <circle id="Ellipse_629" data-name="Ellipse 629" cx="0.875" cy="0.875" r="0.875" transform="matrix(-0.966, 0.259, -0.259, -0.966, 682.708, 1074.619)" fill="#fff"/>
    <circle id="Ellipse_632" data-name="Ellipse 632" cx="0.875" cy="0.875" r="0.875" transform="matrix(-0.966, 0.259, -0.259, -0.966, 662.708, 1074.619)" fill="#fff"/>
    <circle id="Ellipse_623" data-name="Ellipse 623" cx="0.875" cy="0.875" r="0.875" transform="translate(670.874 1061.482) rotate(-104.616)" fill="#fff"/>
    <circle id="Ellipse_626" data-name="Ellipse 626" cx="0.875" cy="0.875" r="0.875" transform="translate(670.874 1081.653) rotate(-104.616)" fill="#fff"/>
    <circle id="Ellipse_628" data-name="Ellipse 628" cx="0.875" cy="0.875" r="0.875" transform="matrix(-0.966, 0.259, -0.259, -0.966, 682.685, 1071.119)" fill="#fff"/>
    <circle id="Ellipse_631" data-name="Ellipse 631" cx="0.875" cy="0.875" r="0.875" transform="matrix(-0.966, 0.259, -0.259, -0.966, 662.685, 1071.119)" fill="#fff"/>
    <circle id="Ellipse_624" data-name="Ellipse 624" cx="0.875" cy="0.875" r="0.875" transform="translate(674.374 1061.482) rotate(-104.616)" fill="#fff"/>
    <circle id="Ellipse_625" data-name="Ellipse 625" cx="0.875" cy="0.875" r="0.875" transform="translate(674.374 1081.653) rotate(-104.616)" fill="#fff"/>
    <circle id="Ellipse_630" data-name="Ellipse 630" cx="0.875" cy="0.875" r="0.875" transform="matrix(-0.966, 0.259, -0.259, -0.966, 682.661, 1067.619)" fill="#fff"/>
    <circle id="Ellipse_633" data-name="Ellipse 633" cx="0.875" cy="0.875" r="0.875" transform="matrix(-0.966, 0.259, -0.259, -0.966, 662.661, 1067.619)" fill="#fff"/>
    <circle id="Ellipse_601" data-name="Ellipse 601" cx="1.654" cy="1.654" r="1.654" transform="translate(673.816 1072.518) rotate(-104.616)" fill="#fff"/>
    <circle id="Ellipse_608" data-name="Ellipse 608" cx="1.654" cy="1.654" r="1.654" transform="translate(673.816 1076.018) rotate(-104.616)" fill="#fff"/>
    <circle id="Ellipse_620" data-name="Ellipse 620" cx="1.654" cy="1.654" r="1.654" transform="translate(673.816 1079.518) rotate(-104.616)" fill="#fff"/>
    <circle id="Ellipse_613" data-name="Ellipse 613" cx="1.654" cy="1.654" r="1.654" transform="translate(673.816 1069.018) rotate(-104.616)" fill="#fff"/>
    <circle id="Ellipse_617" data-name="Ellipse 617" cx="1.654" cy="1.654" r="1.654" transform="translate(673.816 1065.518) rotate(-104.616)" fill="#fff"/>
    <circle id="Ellipse_602" data-name="Ellipse 602" cx="1.654" cy="1.654" r="1.654" transform="translate(677.316 1072.518) rotate(-104.616)" fill="#fff"/>
    <circle id="Ellipse_609" data-name="Ellipse 609" cx="1.654" cy="1.654" r="1.654" transform="translate(677.316 1076.018) rotate(-104.616)" fill="#fff"/>
    <circle id="Ellipse_614" data-name="Ellipse 614" cx="1.654" cy="1.654" r="1.654" transform="translate(677.316 1069.018) rotate(-104.616)" fill="#fff"/>
  </g>
</svg>
