<svg xmlns="http://www.w3.org/2000/svg" width="150" height="60" viewBox="0 0 150 60">
  <g id="Group_8" data-name="Group 8" transform="translate(-597 -826.877)">
    <rect id="Rectangle_47" data-name="Rectangle 47" width="150" height="60" rx="10" transform="translate(597 826.877)"/>
    <path id="Path_1" data-name="Path 1" d="M10.6-.176a12.794,12.794,0,0,1-2.856.4A7.413,7.413,0,0,1,2.769-1.327,5.886,5.886,0,0,1,.844-6.064a6.578,6.578,0,0,1,1.846-4.975,7.032,7.032,0,0,1,5.054-1.74,7.686,7.686,0,0,1,2.839.519l-.176,2.127a5.485,5.485,0,0,0-2.725-.659A3.927,3.927,0,0,0,4.605-9.485a4.69,4.69,0,0,0-1.134,3.24,4.548,4.548,0,0,0,1.134,3.2A4.038,4.038,0,0,0,7.743-1.767a6.086,6.086,0,0,0,2.751-.519ZM14.7,0H12.287V-13.5H14.7Zm5-10.96H17.288v-2.3h2.417Zm0,10.96H17.288V-9.272h2.417Zm8.921-.088A8.269,8.269,0,0,1,26.218.22,4.308,4.308,0,0,1,22.79-1.169a5.146,5.146,0,0,1-1.143-3.507A5,5,0,0,1,22.8-8.086a4.213,4.213,0,0,1,3.331-1.4,8.216,8.216,0,0,1,2.338.308l-.22,1.907a3.873,3.873,0,0,0-1.635-.343,2.2,2.2,0,0,0-1.784.809,3.232,3.232,0,0,0-.668,2.127,3.467,3.467,0,0,0,.615,2.153,2.243,2.243,0,0,0,1.89.87,4.694,4.694,0,0,0,1.854-.439ZM38.883,0H35.824L32.73-4.5H32.7V0H30.278V-13.5H32.7v7.937h.035l2.883-3.709h2.839L35-5.133ZM58.816,0H56.4V-5.528a3.782,3.782,0,0,0-.176-1.362,1.18,1.18,0,0,0-1.213-.721q-1.793,0-1.793,3.111V0H50.8V-5.528a3.782,3.782,0,0,0-.176-1.362,1.18,1.18,0,0,0-1.213-.721q-1.793,0-1.793,3.111V0H45.2V-9.272h2.25v1.3h.035a3.156,3.156,0,0,1,2.76-1.512A2.73,2.73,0,0,1,52.98-7.849a2.766,2.766,0,0,1,1.23-1.239,3.581,3.581,0,0,1,1.67-.4q2.936,0,2.936,3.63ZM69.363-3.885H62.956a2.387,2.387,0,0,0,.8,1.723,2.739,2.739,0,0,0,1.85.615,6.39,6.39,0,0,0,3.076-.94V-.519A6.481,6.481,0,0,1,65.5.22a4.844,4.844,0,0,1-3.568-1.266,4.769,4.769,0,0,1-1.274-3.542,5.325,5.325,0,0,1,1.072-3.454,3.91,3.91,0,0,1,3.226-1.441,3.918,3.918,0,0,1,3.5,1.582A7.209,7.209,0,0,1,69.363-3.885Zm-2.3-1.661q-.132-2.18-1.96-2.18a1.966,1.966,0,0,0-1.538.624,2.586,2.586,0,0,0-.606,1.556Z" transform="translate(637 863.877)" fill="#fff"/>
  </g>
</svg>
