<svg xmlns="http://www.w3.org/2000/svg" width="96.8" height="26.577" viewBox="0 0 96.8 26.577">
  <path id="Exclusion_2" data-name="Exclusion 2" d="M90.984-4725.561a9.73,9.73,0,0,1-7.136-2.531,9.58,9.58,0,0,1-2.549-7.084,10.7,10.7,0,0,1,2.145-6.909,7.854,7.854,0,0,1,6.451-2.882c3.22,0,5.573,1.064,7,3.163,1.213,1.8,1.828,4.5,1.828,8.033H85.9a4.793,4.793,0,0,0,1.591,3.446,5.5,5.5,0,0,0,3.7,1.231,12.846,12.846,0,0,0,6.153-1.882v3.938A13.025,13.025,0,0,1,90.984-4725.561Zm-.791-15.891a3.949,3.949,0,0,0-3.076,1.248,5.194,5.194,0,0,0-1.213,3.111h8.208C93.939-4739.984,92.62-4741.451,90.194-4741.451Zm-53.21,15.891a9.453,9.453,0,0,1-7.136-2.795,9.436,9.436,0,0,1-2.549-6.785,9.656,9.656,0,0,1,2.795-7.208,9.51,9.51,0,0,1,6.891-2.618,9.556,9.556,0,0,1,6.927,2.618,9.62,9.62,0,0,1,2.795,7.208,9.436,9.436,0,0,1-2.549,6.785A9.534,9.534,0,0,1,36.984-4725.561Zm0-15.662a4.157,4.157,0,0,0-3.5,1.705,6.172,6.172,0,0,0-1.16,3.8,8.218,8.218,0,0,0,1.164,4.812,4.052,4.052,0,0,0,3.493,1.6,4.075,4.075,0,0,0,3.508-1.6,8.192,8.192,0,0,0,1.169-4.812,6.173,6.173,0,0,0-1.143-3.814A4.211,4.211,0,0,0,36.984-4741.222ZM66.427-4726H61.593v-6.841a.9.9,0,0,1-.661.291.882.882,0,0,1-.481-.142.886.886,0,0,1-.389-.561.884.884,0,0,1,.121-.672.888.888,0,0,1,.751-.41.889.889,0,0,1,.482.142.912.912,0,0,1,.176.149v1.2a.877.877,0,0,0,.092-.119.894.894,0,0,0-.092-1.084v-1.775a1.382,1.382,0,0,1-.216.069,1.3,1.3,0,0,1-.3.035,1.333,1.333,0,0,1-1.3-1.039,1.342,1.342,0,0,1,1.006-1.6,1.34,1.34,0,0,1,.3-.034,1.319,1.319,0,0,1,.466.084c.032.37.048.791.048,1.252v1.237a1.333,1.333,0,0,0,.791-1.534,1.337,1.337,0,0,0-.838-.955,5.7,5.7,0,0,0-.234-1.288,1.421,1.421,0,0,0,.171-.028,1.329,1.329,0,0,0,.834-.594,1.329,1.329,0,0,0,.17-1.01,1.33,1.33,0,0,0-1.3-1.04,1.347,1.347,0,0,0-.3.034,1.34,1.34,0,0,0-1.03,1.155,2.167,2.167,0,0,1,1.389,1.3c.023.055.047.117.07.185a1.283,1.283,0,0,1-.13.007,1.331,1.331,0,0,1-1.3-1.04,1.336,1.336,0,0,1-.026-.449,3.06,3.06,0,0,0-.6-.123,1.985,1.985,0,0,1-1.514,2.259l-.023.005-.024.005a1.972,1.972,0,0,1,1.477,1.487,1.987,1.987,0,0,1-1.489,2.376,2.006,2.006,0,0,1-.446.051,1.975,1.975,0,0,1-1.829-1.219,2.016,2.016,0,0,1-.151.3,12.317,12.317,0,0,1,.254-2.036,2,2,0,0,0-.109.223v0a1.989,1.989,0,0,0-1.376-1.164,1.974,1.974,0,0,0,1.408-1.282,1.973,1.973,0,0,0,.551.811,6.444,6.444,0,0,0-.472,1.411,1.985,1.985,0,0,1,1.283-.956l.049-.011a2,2,0,0,1-.86-.445,2.973,2.973,0,0,1,2.836-1.833,4.121,4.121,0,0,1,.435.022c-.006-.038-.014-.077-.023-.119a1.975,1.975,0,0,0-1.931-1.539,2,2,0,0,0-.446.051,1.971,1.971,0,0,0-1.432,1.286,1.967,1.967,0,0,0-.337-.589,7.139,7.139,0,0,1,1.7-1.742,1.33,1.33,0,0,0,.555.122,1.316,1.316,0,0,0,.3-.035,1.339,1.339,0,0,0,.994-.961,5.96,5.96,0,0,0-1.849.874,1.331,1.331,0,0,1-.749-.918,1.328,1.328,0,0,1,.17-1.01,1.33,1.33,0,0,1,.835-.594,1.362,1.362,0,0,1,.3-.034,1.333,1.333,0,0,1,1.3,1.039,1.341,1.341,0,0,1-.012.643,6.8,6.8,0,0,1,1.466-.23.9.9,0,0,0,.023.212.888.888,0,0,0,.868.693.837.837,0,0,0,.2-.024.889.889,0,0,0,.688-.778,5.216,5.216,0,0,1,4.074,3.157,5.553,5.553,0,0,1,2.461-2.479,7.2,7.2,0,0,1,3.34-.791,5.348,5.348,0,0,1,4.4,1.815,8.57,8.57,0,0,1,1.468,5.444V-4726H72.791v-11.056a7.591,7.591,0,0,0-.352-2.725,2.368,2.368,0,0,0-2.425-1.441,2.925,2.925,0,0,0-2.69,1.555,9.616,9.616,0,0,0-.9,4.667v9Zm-58.465,0H2.918v-25.137H7.963v10.161H18.035v-10.161H23.08V-4726H18.035v-11H7.963v11Zm47.268,0H50.4v-6.879a.9.9,0,0,1-.385.219.894.894,0,0,1-.234.031.893.893,0,0,1-.861-.658.9.9,0,0,1,.627-1.1.909.909,0,0,1,.233-.031.892.892,0,0,1,.619.25v1.286a.894.894,0,0,0,.242-.877.891.891,0,0,0-.242-.409v-1.9a1.332,1.332,0,0,1-.78.251,1.332,1.332,0,0,1-1.056-.515,1.328,1.328,0,0,1-.273-.987,1.329,1.329,0,0,1,.505-.891,1.328,1.328,0,0,1,.822-.283,1.328,1.328,0,0,1,.782.251v2.174l.043-.032a1.333,1.333,0,0,0,.5-.892,1.325,1.325,0,0,0-.273-.986,1.323,1.323,0,0,0-.274-.264v-1.683l-.008.007-.007.006a1.324,1.324,0,0,1-.822.284,1.33,1.33,0,0,1-1.056-.516,1.327,1.327,0,0,1-.273-.987,1.329,1.329,0,0,1,.505-.892,1.325,1.325,0,0,1,.821-.282,1.344,1.344,0,0,1,.84.3v2.085a1.34,1.34,0,0,0,.217-1.864,1.339,1.339,0,0,0-.217-.221v-2.536h2.079a1.347,1.347,0,0,1-.093-.271,1.329,1.329,0,0,1,.171-1.011,1.329,1.329,0,0,1,.835-.593,1.343,1.343,0,0,1,.3-.034,1.33,1.33,0,0,1,1.3,1.04,1.323,1.323,0,0,1-.1.873l-2.42,0a1.342,1.342,0,0,0,1.21.768,1.3,1.3,0,0,0,.3-.035,1.331,1.331,0,0,0,.91-.729v2.236a1.979,1.979,0,0,0-1.341-.524,1.986,1.986,0,0,0-.445.051,1.971,1.971,0,0,0-1.237.88,1.969,1.969,0,0,0-.252,1.5,1.971,1.971,0,0,0,1.481,1.487,1.99,1.99,0,0,0-1.467,2.372A1.974,1.974,0,0,0,53.566-4735a1.948,1.948,0,0,0,.445-.051,1.965,1.965,0,0,0,1.242-.887c-.014.288-.022.6-.022.94v9Zm-1.791-8.406a1.343,1.343,0,0,0-1.249.861,1.339,1.339,0,0,0,.773,1.727,1.316,1.316,0,0,0,.477.088,1.347,1.347,0,0,0,1.251-.861,1.328,1.328,0,0,0-.029-1.024,1.328,1.328,0,0,0-.745-.7A1.333,1.333,0,0,0,53.44-4734.407Zm3.921,2.614a1.329,1.329,0,0,1-.721-.212,1.329,1.329,0,0,1-.584-.841,1.327,1.327,0,0,1,.181-1.007,1.333,1.333,0,0,1,1.127-.615,1.333,1.333,0,0,1,.723.212,1.34,1.34,0,0,1,.4,1.848A1.337,1.337,0,0,1,57.361-4731.793Zm-8.053-12.112a.888.888,0,0,1-.7-.342.9.9,0,0,1,.155-1.253.884.884,0,0,1,.548-.188.892.892,0,0,1,.705.343.9.9,0,0,1-.156,1.253A.882.882,0,0,1,49.307-4743.905Zm12.571-.948h0a8.17,8.17,0,0,0-1.392-.113c-.137,0-.267,0-.387.009a.891.891,0,0,1,.693-.857.873.873,0,0,1,.2-.022.89.89,0,0,1,.87.693.894.894,0,0,1,.018.29Z" transform="translate(-2.418 4751.637)" stroke="rgba(0,0,0,0)" stroke-miterlimit="10" stroke-width="1"/>
</svg>
