<svg xmlns="http://www.w3.org/2000/svg" width="50" height="50" viewBox="0 0 50 50">
  <g id="Group_41316" data-name="Group 41316" transform="translate(-500 -440)">
    <circle id="Ellipse_504" data-name="Ellipse 504" cx="3.309" cy="3.309" r="3.309" transform="translate(534.68 455.426) rotate(-104.616)"/>
    <circle id="Ellipse_535" data-name="Ellipse 535" cx="2.206" cy="2.206" r="2.206" transform="translate(542.033 453.956) rotate(-104.616)"/>
    <circle id="Ellipse_527" data-name="Ellipse 527" cx="3.309" cy="3.309" r="3.309" transform="translate(534.68 469.037) rotate(-104.616)"/>
    <circle id="Ellipse_533" data-name="Ellipse 533" cx="2.206" cy="2.206" r="2.206" transform="translate(542.033 467.566) rotate(-104.616)"/>
    <circle id="Ellipse_495" data-name="Ellipse 495" cx="3.309" cy="3.309" r="3.309" transform="translate(534.68 482.867) rotate(-104.616)"/>
    <circle id="Ellipse_534" data-name="Ellipse 534" cx="2.206" cy="2.206" r="2.206" transform="translate(542.033 481.396) rotate(-104.616)"/>
    <circle id="Ellipse_497" data-name="Ellipse 497" cx="3.309" cy="3.309" r="3.309" transform="translate(522.915 482.867) rotate(-104.616)"/>
    <circle id="Ellipse_500" data-name="Ellipse 500" cx="3.309" cy="3.309" r="3.309" transform="translate(510.694 482.632) rotate(-104.616)"/>
    <circle id="Ellipse_503" data-name="Ellipse 503" cx="2.206" cy="2.206" r="2.206" transform="translate(504.812 481.161) rotate(-104.616)"/>
    <circle id="Ellipse_506" data-name="Ellipse 506" cx="3.309" cy="3.309" r="3.309" transform="translate(522.915 455.426) rotate(-104.616)"/>
    <circle id="Ellipse_529" data-name="Ellipse 529" cx="3.309" cy="3.309" r="3.309" transform="translate(522.915 469.037) rotate(-104.616)"/>
    <circle id="Ellipse_508" data-name="Ellipse 508" cx="3.309" cy="3.309" r="3.309" transform="translate(510.694 455.191) rotate(-104.616)"/>
    <circle id="Ellipse_531" data-name="Ellipse 531" cx="3.309" cy="3.309" r="3.309" transform="translate(510.694 468.802) rotate(-104.616)"/>
    <circle id="Ellipse_509" data-name="Ellipse 509" cx="2.206" cy="2.206" r="2.206" transform="translate(504.812 453.721) rotate(-104.616)"/>
    <circle id="Ellipse_532" data-name="Ellipse 532" cx="2.206" cy="2.206" r="2.206" transform="translate(504.812 467.331) rotate(-104.616)"/>
    <g id="Rectangle_23" data-name="Rectangle 23" transform="translate(500 440)" fill="none" stroke="#04f" stroke-width="0.4">
      <rect width="50" height="50" stroke="none"/>
      <rect x="0.2" y="0.2" width="49.6" height="49.6" fill="none"/>
    </g>
    <g id="Ellipse_552" data-name="Ellipse 552" transform="translate(500 440)" fill="none" stroke="#2680eb" stroke-width="0.4">
      <circle cx="25" cy="25" r="25" stroke="none"/>
      <circle cx="25" cy="25" r="24.8" fill="none"/>
    </g>
  </g>
</svg>
