<svg xmlns="http://www.w3.org/2000/svg" width="11.768" height="11.986" viewBox="0 0 11.768 11.986">
  <g id="Group_26" data-name="Group 26" transform="translate(-344.999 -656.2)">
    <circle id="Ellipse_171" data-name="Ellipse 171" cx="0.618" cy="0.618" r="0.618" transform="translate(346.396 665.509) rotate(-15.203)" stroke="rgba(0,0,0,0)" stroke-miterlimit="10" stroke-width="1"/>
    <circle id="Ellipse_172" data-name="Ellipse 172" cx="0.927" cy="0.927" r="0.927" transform="matrix(0.356, -0.934, 0.934, 0.356, 348.495, 666.793)" stroke="rgba(0,0,0,0)" stroke-miterlimit="10" stroke-width="1"/>
    <circle id="Ellipse_174" data-name="Ellipse 174" cx="0.927" cy="0.927" r="0.927" transform="matrix(0.54, -0.841, 0.841, 0.54, 351.129, 666.494)" stroke="rgba(0,0,0,0)" stroke-miterlimit="10" stroke-width="1"/>
    <circle id="Ellipse_175" data-name="Ellipse 175" cx="0.618" cy="0.618" r="0.618" transform="matrix(0.54, -0.841, 0.841, 0.54, 354.031, 666.185)" stroke="rgba(0,0,0,0)" stroke-miterlimit="10" stroke-width="1"/>
    <circle id="Ellipse_178" data-name="Ellipse 178" cx="0.618" cy="0.618" r="0.618" transform="translate(345.96 658.023) rotate(-37.945)" stroke="rgba(0,0,0,0)" stroke-miterlimit="10" stroke-width="1"/>
    <circle id="Ellipse_179" data-name="Ellipse 179" cx="0.927" cy="0.927" r="0.927" transform="translate(345.701 660.624) rotate(-37.945)" stroke="rgba(0,0,0,0)" stroke-miterlimit="10" stroke-width="1"/>
    <circle id="Ellipse_180" data-name="Ellipse 180" cx="0.927" cy="0.927" r="0.927" transform="translate(345.741 663.266) rotate(-37.945)" stroke="rgba(0,0,0,0)" stroke-miterlimit="10" stroke-width="1"/>
    <circle id="Ellipse_190" data-name="Ellipse 190" cx="0.927" cy="0.927" r="0.927" transform="translate(348.752 657.214) rotate(-12.926)" stroke="rgba(0,0,0,0)" stroke-miterlimit="10" stroke-width="1"/>
    <circle id="Ellipse_191" data-name="Ellipse 191" cx="0.927" cy="0.927" r="0.927" transform="translate(351.282 657.245) rotate(-12.926)" stroke="rgba(0,0,0,0)" stroke-miterlimit="10" stroke-width="1"/>
    <circle id="Ellipse_192" data-name="Ellipse 192" cx="0.618" cy="0.618" r="0.618" transform="translate(354.183 657.564) rotate(-12.926)" stroke="rgba(0,0,0,0)" stroke-miterlimit="10" stroke-width="1"/>
    <circle id="Ellipse_194" data-name="Ellipse 194" cx="0.927" cy="0.927" r="0.927" transform="translate(353.946 660.115) rotate(-12.926)" stroke="rgba(0,0,0,0)" stroke-miterlimit="10" stroke-width="1"/>
    <circle id="Ellipse_195" data-name="Ellipse 195" cx="1.374" cy="1.374" r="1.374" transform="translate(350.715 659.816) rotate(-12.926)" stroke="rgba(0,0,0,0)" stroke-miterlimit="10" stroke-width="1"/>
    <circle id="Ellipse_196" data-name="Ellipse 196" cx="1.374" cy="1.374" r="1.374" transform="translate(348.124 659.837) rotate(-12.926)" stroke="rgba(0,0,0,0)" stroke-miterlimit="10" stroke-width="1"/>
    <circle id="Ellipse_197" data-name="Ellipse 197" cx="1.374" cy="1.374" r="1.374" transform="translate(348.134 662.511) rotate(-12.926)" stroke="rgba(0,0,0,0)" stroke-miterlimit="10" stroke-width="1"/>
    <circle id="Ellipse_198" data-name="Ellipse 198" cx="1.374" cy="1.374" r="1.374" transform="translate(350.674 662.501) rotate(-12.926)" stroke="rgba(0,0,0,0)" stroke-miterlimit="10" stroke-width="1"/>
    <circle id="Ellipse_199" data-name="Ellipse 199" cx="0.927" cy="0.927" r="0.927" transform="translate(353.874 662.8) rotate(-12.926)" stroke="rgba(0,0,0,0)" stroke-miterlimit="10" stroke-width="1"/>
  </g>
</svg>
